<svg width="22" height="14" viewBox="0 0 22 14" fill="none" xmlns="http://www.w3.org/2000/svg">
<path d="M15 6C15.5933 6 16.1734 5.82405 16.6667 5.49441C17.1601 5.16477 17.5446 4.69623 17.7716 4.14805C17.9987 3.59987 18.0581 2.99667 17.9424 2.41473C17.8266 1.83279 17.5409 1.29824 17.1213 0.878681C16.7018 0.459123 16.1672 0.173401 15.5853 0.0576455C15.0033 -0.0581102 14.4001 0.00129986 13.8519 0.228363C13.3038 0.455426 12.8352 0.839943 12.5056 1.33329C12.1759 1.82664 12 2.40666 12 3C11.9983 3.39445 12.0747 3.78533 12.2249 4.15008C12.375 4.51484 12.5959 4.84624 12.8748 5.12516C13.1538 5.40408 13.4852 5.62499 13.8499 5.77514C14.2147 5.9253 14.6056 6.00172 15 6ZM7 6C7.59334 6 8.17336 5.82405 8.66671 5.49441C9.16006 5.16477 9.54458 4.69623 9.77164 4.14805C9.9987 3.59987 10.0581 2.99667 9.94236 2.41473C9.8266 1.83279 9.54088 1.29824 9.12132 0.878681C8.70176 0.459123 8.16721 0.173401 7.58527 0.0576455C7.00333 -0.0581102 6.40013 0.00129986 5.85195 0.228363C5.30377 0.455426 4.83524 0.839943 4.50559 1.33329C4.17595 1.82664 4 2.40666 4 3C3.99828 3.39445 4.0747 3.78533 4.22486 4.15008C4.37501 4.51484 4.59592 4.84624 4.87484 5.12516C5.15376 5.40408 5.48516 5.62499 5.84992 5.77514C6.21467 5.9253 6.60555 6.00172 7 6ZM7 8C4.67 8 0 9.17 0 11.5V14H14V11.5C14 9.17 9.33 8 7 8ZM15 8C14.71 8 14.38 8.02 14.03 8.05C14.6164 8.41914 15.1028 8.92698 15.4464 9.52868C15.79 10.1304 15.9801 10.8074 16 11.5V14H22V11.5C22 9.17 17.33 8 15 8Z" fill="#7A7878"/>
</svg>
