<svg width="18" height="18" xmlns="http://www.w3.org/2000/svg">

 <g>
  <title>background</title>
  <rect fill="none" id="canvas_background" height="20" width="20" y="-1" x="-1"/>
 </g>
 <g>
  <title>Layer 1</title>
  <path id="svg_1" fill="white" d="m0,10l8,0l0,-10l-8,0l0,10zm0,8l8,0l0,-6l-8,0l0,6zm10,0l8,0l0,-10l-8,0l0,10zm0,-18l0,6l8,0l0,-6l-8,0z"/>
  <rect stroke-dasharray="5,2,2,2,2,2" id="svg_5" height="11.929542" width="10.008005" y="-1.133106" x="-1.128102" stroke-width="0" stroke="#000" fill="#7a7878"/>
  <rect id="svg_11" height="7.683143" width="11.316257" y="-1.635048" x="9.982729" stroke-width="0" stroke="#000" fill="#7a7878"/>
  <rect id="svg_12" height="11.614054" width="9.053006" y="7.953991" x="9.982729" stroke-width="0" stroke="#000" fill="#7a7878"/>
  <rect id="svg_13" height="7.861821" width="9.52948" y="11.94446" x="-1.512207" stroke-width="0" stroke="#000" fill="#7a7878"/>
 </g>
</svg>