<svg width="20" height="20" viewBox="0 0 20 20" fill="none" xmlns="http://www.w3.org/2000/svg">
<path d="M9 16H11V14H9V16ZM10 3.05176e-05C8.02219 3.05176e-05 6.08879 0.58652 4.4443 1.68533C2.79981 2.78415 1.51809 4.34593 0.761209 6.1732C0.00433284 8.00046 -0.193701 10.0111 0.192152 11.9509C0.578004 13.8907 1.53041 15.6726 2.92894 17.0711C4.32746 18.4696 6.10929 19.422 8.0491 19.8079C9.98891 20.1937 11.9996 19.9957 13.8268 19.2388C15.6541 18.482 17.2159 17.2002 18.3147 15.5557C19.4135 13.9112 20 11.9778 20 10C20 8.68681 19.7413 7.38645 19.2388 6.1732C18.7363 4.95994 17.9997 3.85755 17.0711 2.92896C16.1425 2.00038 15.0401 1.26378 13.8268 0.761235C12.6136 0.258688 11.3132 3.05176e-05 10 3.05176e-05ZM10 18C8.41775 18 6.87104 17.5308 5.55544 16.6518C4.23985 15.7727 3.21447 14.5233 2.60897 13.0615C2.00347 11.5997 1.84504 9.99116 2.15372 8.43931C2.4624 6.88746 3.22433 5.462 4.34315 4.34318C5.46197 3.22436 6.88743 2.46243 8.43928 2.15375C9.99113 1.84507 11.5997 2.00349 13.0615 2.60899C14.5233 3.2145 15.7727 4.23988 16.6518 5.55547C17.5308 6.87106 18 8.41778 18 10C17.9971 12.1209 17.1533 14.154 15.6536 15.6537C14.154 17.1533 12.1208 17.9971 10 18ZM10 4.00003C8.93914 4.00003 7.92172 4.42146 7.17158 5.1716C6.42143 5.92175 6 6.93916 6 8.00003H8C8 7.4696 8.21072 6.96089 8.58579 6.58582C8.96086 6.21074 9.46957 6.00003 10 6.00003C10.5304 6.00003 11.0391 6.21074 11.4142 6.58582C11.7893 6.96089 12 7.4696 12 8.00003C12 10 9 9.75003 9 13H11C11 10.75 14 10.5 14 8.00003C14 6.93916 13.5786 5.92175 12.8284 5.1716C12.0783 4.42146 11.0609 4.00003 10 4.00003Z" fill="#7A7878"/>
</svg>
