<svg width="22" height="18" viewBox="0 0 22 18" fill="none" xmlns="http://www.w3.org/2000/svg">
<path d="M20 0H2C1.4812 0.0353043 0.992747 0.257353 0.62505 0.62505C0.257353 0.992747 0.0353043 1.4812 0 2V16C0.00158273 16.5299 0.212805 17.0377 0.587535 17.4125C0.962265 17.7872 1.47005 17.9984 2 18H20C20.5188 17.9647 21.0073 17.7426 21.375 17.375C21.7426 17.0073 21.9647 16.5188 22 16V2C21.9647 1.4812 21.7426 0.992747 21.375 0.62505C21.0073 0.257353 20.5188 0.0353043 20 0ZM4 14L7.5 9.5L10 12.51L13.5 8L18 14H4Z" fill="#7A7878"/>
</svg>
