<svg width="22" height="18" viewBox="0 0 22 18" fill="none" xmlns="http://www.w3.org/2000/svg">
<path d="M20 1.50001C18.8651 1.15851 17.6852 0.989956 16.5 1.00001C14.5548 0.911907 12.6311 1.43656 11 2.50001C9.3689 1.43656 7.44516 0.911907 5.5 1.00001C3.55484 0.911907 1.6311 1.43656 0 2.50001V17.15C0.00887765 17.2797 0.0644064 17.4018 0.15632 17.4937C0.248234 17.5856 0.370318 17.6411 0.5 17.65C0.6 17.65 0.65 17.6 0.75 17.6C2.24323 16.9176 3.8588 16.5435 5.5 16.5C7.44516 16.4119 9.3689 16.9366 11 18C12.6869 17.0671 14.5731 16.5527 16.5 16.5C18.1449 16.4609 19.7748 16.8212 21.25 17.55C21.3268 17.5904 21.4136 17.6077 21.5 17.6C21.6297 17.5911 21.7518 17.5356 21.8437 17.4437C21.9356 17.3518 21.9911 17.2297 22 17.1V2.50001C21.3929 2.05892 20.7171 1.72105 20 1.50001ZM20 15C18.8657 14.6558 17.6853 14.4872 16.5 14.5C14.5731 14.5527 12.6869 15.0671 11 16V4.50001C12.6869 3.5671 14.5731 3.0527 16.5 3.00001C17.6853 2.98717 18.8657 3.15579 20 3.50001V15Z" fill="#7A7878"/>
</svg>
