<svg width="18" height="20" viewBox="0 0 18 20" fill="none" xmlns="http://www.w3.org/2000/svg">
<path d="M16 2.00002H11.82C11.6152 1.41546 11.2339 0.908976 10.7287 0.550638C10.2235 0.1923 9.61939 -0.000183105 9 -0.000183105C8.38061 -0.000183105 7.77653 0.1923 7.27133 0.550638C6.76612 0.908976 6.38476 1.41546 6.18 2.00002H2C1.47005 2.0016 0.962265 2.21282 0.587535 2.58755C0.212805 2.96228 0.00158273 3.47007 0 4.00002V18C0.00158273 18.53 0.212805 19.0378 0.587535 19.4125C0.962265 19.7872 1.47005 19.9984 2 20H16C16.5299 19.9984 17.0377 19.7872 17.4125 19.4125C17.7872 19.0378 17.9984 18.53 18 18V4.00002C17.9984 3.47007 17.7872 2.96228 17.4125 2.58755C17.0377 2.21282 16.5299 2.0016 16 2.00002ZM9 2.00002C9.19778 2.00002 9.39112 2.05867 9.55557 2.16855C9.72002 2.27843 9.84819 2.43461 9.92388 2.61734C9.99957 2.80006 10.0194 3.00113 9.98079 3.19511C9.9422 3.38909 9.84696 3.56727 9.70711 3.70713C9.56725 3.84698 9.38907 3.94222 9.19509 3.9808C9.00111 4.01939 8.80004 3.99959 8.61732 3.9239C8.43459 3.84821 8.27841 3.72004 8.16853 3.55559C8.05865 3.39114 8 3.1978 8 3.00002C8 2.7348 8.10536 2.48045 8.29289 2.29291C8.48043 2.10538 8.73478 2.00002 9 2.00002ZM11 16H4V14H11V16ZM14 12H4V10H14V12ZM14 8.00002H4V6.00002H14V8.00002Z" fill="#7A7878"/>
</svg>
