<svg width="23" height="23" viewBox="0 0 23 23" fill="none" xmlns="http://www.w3.org/2000/svg">
<path d="M21.744 18.9L12.644 9.79995C13.096 8.62914 13.1948 7.35151 12.9282 6.12512C12.6616 4.89874 12.0413 3.77744 11.144 2.89995C10.1883 1.95776 8.96846 1.32875 7.64664 1.09654C6.32482 0.864332 4.96364 1.03991 3.74401 1.59995L8.04401 5.89995L5.04401 8.89995L0.644013 4.59995C0.0597789 5.81447 -0.12902 7.18158 0.104172 8.50898C0.337364 9.83638 0.980814 11.0573 1.94401 12C2.8215 12.8972 3.9428 13.5176 5.16919 13.7842C6.39557 14.0508 7.67321 13.952 8.84401 13.5L17.944 22.6C18.0343 22.6947 18.1429 22.7701 18.2633 22.8217C18.3836 22.8732 18.5131 22.8998 18.644 22.8998C18.7749 22.8998 18.9044 22.8732 19.0248 22.8217C19.1451 22.7701 19.2537 22.6947 19.344 22.6L21.644 20.3C21.7548 20.2233 21.847 20.1228 21.9137 20.0058C21.9805 19.8888 22.0201 19.7583 22.0297 19.6239C22.0393 19.4896 22.0186 19.3548 21.9692 19.2295C21.9197 19.1042 21.8428 18.9916 21.744 18.9Z" fill="#7A7878"/>
</svg>
