<svg width="22" height="22" viewBox="0 0 22 22" fill="none" xmlns="http://www.w3.org/2000/svg">
<path d="M2 4H0V20C0.00158273 20.5299 0.212805 21.0377 0.587535 21.4125C0.962265 21.7872 1.47005 21.9984 2 22H18V20H2V4ZM20 0H6C5.47005 0.00158273 4.96227 0.212805 4.58753 0.587535C4.2128 0.962265 4.00158 1.47005 4 2V16C4.00158 16.5299 4.2128 17.0377 4.58753 17.4125C4.96227 17.7872 5.47005 17.9984 6 18H20C20.5299 17.9984 21.0377 17.7872 21.4125 17.4125C21.7872 17.0377 21.9984 16.5299 22 16V2C21.9984 1.47005 21.7872 0.962265 21.4125 0.587535C21.0377 0.212805 20.5299 0.00158273 20 0ZM20 16H6V2H20V16Z" fill="#7A7878"/>
</svg>
